<svg width="77" height="77" viewBox="0 0 77 77" fill="none" xmlns="http://www.w3.org/2000/svg">
<path d="M38.5 77C28.2165 77 18.548 72.9953 11.2764 65.7236C4.00474 58.452 0 48.7835 0 38.5C0 28.2165 4.00474 18.548 11.2764 11.2764C18.548 4.00474 28.2165 0 38.5 0C48.7835 0 58.452 4.00474 65.7236 11.2764C72.9953 18.548 77 28.2165 77 38.5C77 48.7835 72.9953 58.452 65.7236 65.7236C58.452 72.9953 48.7835 77 38.5 77ZM38.5 6.01562C20.5882 6.01562 6.01562 20.5882 6.01562 38.5C6.01562 56.4118 20.5882 70.9844 38.5 70.9844C56.4118 70.9844 70.9844 56.4118 70.9844 38.5C70.9844 20.5882 56.4118 6.01562 38.5 6.01562ZM59.2968 33.3867L55.043 29.1329L38.5 45.6759L21.957 29.1329L17.7032 33.3867L38.5 54.1835L59.2968 33.3867Z" fill="white"/>
</svg>
